PathFileType	4	(X/Y/Z)	/Users/itak/Documents/Research/Walk-IL/dataset/trc/00478_00167.trc
DataRate	CameraRate	NumFrames	NumMarkers	Units	OrigDataRate	OrigDataStartFrame	OrigNumFrames
100.000000	100.000000	4	53	mm	100.000000	203	543
Frame#	Time	RPSI			LPSI			L3			STRN			T10			C7			CLAV			RBAK			LBAK			LSHO			LUPA			LAEL			LAOL			LWTS			LWPS			LFRA			LIFD			LHPS			LHTS			RSHO			RUPA			RAEL			RAOL			RWTS			RWPS			RFRA			RIFD			RHTS			RHPS			RBHD			LFHD			RFHD			LBHD			LHIP			RHIP			RASI			LASI			LKNE			LTHI			LANK			LTIP			LTOE			LMT1			LMT5			LHEE			RKNE			RTHI			RANK			RTIP			RTOE			RMT1			RMT5			RHEE			
		X1	Y1	Z1	X2	Y2	Z2	X3	Y3	Z3	X4	Y4	Z4	X5	Y5	Z5	X6	Y6	Z6	X7	Y7	Z7	X8	Y8	Z8	X9	Y9	Z9	X10	Y10	Z10	X11	Y11	Z11	X12	Y12	Z12	X13	Y13	Z13	X14	Y14	Z14	X15	Y15	Z15	X16	Y16	Z16	X17	Y17	Z17	X18	Y18	Z18	X19	Y19	Z19	X20	Y20	Z20	X21	Y21	Z21	X22	Y22	Z22	X23	Y23	Z23	X24	Y24	Z24	X25	Y25	Z25	X26	Y26	Z26	X27	Y27	Z27	X28	Y28	Z28	X29	Y29	Z29	X30	Y30	Z30	X31	Y31	Z31	X32	Y32	Z32	X33	Y33	Z33	X34	Y34	Z34	X35	Y35	Z35	X36	Y36	Z36	X37	Y37	Z37	X38	Y38	Z38	X39	Y39	Z39	X40	Y40	Z40	X41	Y41	Z41	X42	Y42	Z42	X43	Y43	Z43	X44	Y44	Z44	X45	Y45	Z45	X46	Y46	Z46	X47	Y47	Z47	X48	Y48	Z48	X49	Y49	Z49	X50	Y50	Z50	X51	Y51	Z51	X52	Y52	Z52	X53	Y53	Z53	

204	2.03	-545.7264404296875	958.1314086914062	2.362839937210083	-521.0432739257812	944.6014404296875	-137.9675598144531	-516.8223266601562	1060.070434570312	-40.39902496337891	-224.3590087890625	1238.850463867188	-20.5697135925293	-515.6746215820312	1185.211791992188	-38.20524215698242	-431.6978454589844	1448.171630859375	-16.74695014953613	-253.3983001708984	1353.880859375	-26.60122489929199	-505.8008117675781	1333.051025390625	73.73793029785156	-467.9432983398438	1404.762573242188	-116.5610885620117	-360.7776184082031	1419.396728515625	-191.9666290283203	-383.3068237304688	1311.774536132812	-294.3362731933594	-384.9000549316406	1101.802490234375	-350.0550842285156	-465.1997985839844	1090.602172851562	-286.2490844726562	-315.8107299804688	893.9129028320312	-322.4504089355469	-365.2485656738281	880.798828125	-376.2910461425781	-369.5481872558594	1013.74462890625	-366.5911560058594	-314.9184875488281	734.6609497070312	-328.0443420410156	-361.5866394042969	801.2424926757812	-374.7524719238281	-304.1881408691406	808.279296875	-331.4081726074219	-372.2904663085938	1417.13623046875	141.6356201171875	-395.8047790527344	1364.635498046875	219.6967315673828	-401.3533630371094	1090.16064453125	315.6695861816406	-448.9712524414062	1064.512573242188	275.5796508789062	-280.9219665527344	888.329345703125	298.3764953613281	-346.0165405273438	879.8726806640625	357.1976928710938	-392.9443359375	1033.443237304688	332.5055541992188	-273.5274047851562	735.0711669921875	334.3815612792969	-262.5567626953125	793.1853637695312	325.46533203125	-326.3018798828125	796.298583984375	369.3909301757812	-289.6885681152344	1646.932373046875	53.60176849365234	-227.8874816894531	1629.0537109375	-142.8807067871094	-175.8588104248047	1642.306274414062	-23.67734146118164	-375.0365600585938	1635.812255859375	-102.8729934692383	-353.3776245117188	849.1547241210938	-228.0146942138672	-447.8019714355469	858.6700439453125	160.3907470703125	-336.9826354980469	901.8826904296875	116.3012619018555	-287.4945678710938	894.9654541015625	-130.1538848876953	-196.6944732666016	462.5379333496094	-193.4642028808594	-207.4559783935547	620.2490844726562	-213.6727752685547	-519.8990478515625	175.0222778320312	-159.2790069580078	-302.3267211914062	337.1364135742188	-196.9066619873047	-322.7580261230469	53.43598175048828	-117.4900207519531	-379.8593139648438	90.04372406005859	-79.52243804931641	-398.1011047363281	95.37619781494141	-189.2422637939453	-544.1756591796875	203.2967987060547	-89.97207641601562	-381.6083068847656	467.614501953125	137.4916534423828	-393.2474670410156	727.1392822265625	174.2326354980469	-449.1476135253906	44.52088165283203	142.7323913574219	-379.394287109375	321.1712951660156	145.2273864746094	-238.5758666992188	44.6318359375	68.06938934326172	-307.352294921875	51.89442443847656	43.45260238647461	-313.2890319824219	43.84120941162109	153.1203460693359	-520.3464965820312	39.53862762451172	106.9697647094727	
205	2.04	-536.0840454101562	958.1452026367188	1.591214299201965	-510.99462890625	944.0408935546875	-138.5935363769531	-507.6551818847656	1059.807250976562	-40.11672592163086	-215.1171569824219	1239.194946289062	-21.77469825744629	-506.1756286621094	1184.985717773438	-37.52201843261719	-422.6708068847656	1448.142456054688	-17.02157974243164	-244.3128204345703	1354.226806640625	-28.2380428314209	-495.8140563964844	1333.350219726562	74.59751129150391	-459.8577575683594	1404.21484375	-116.2318115234375	-353.6094970703125	1418.948608398438	-192.7434997558594	-377.4673156738281	1311.391479492188	-294.703857421875	-380.1279602050781	1101.766967773438	-350.8354797363281	-459.0511779785156	1090.184692382812	-285.3461303710938	-309.9104309082031	894.106689453125	-325.875	-360.9619140625	880.8850708007812	-378.4178771972656	-365.001953125	1013.842041015625	-368.1026306152344	-308.1876525878906	734.8749389648438	-332.1439208984375	-356.8843078613281	801.3132934570312	-377.034912109375	-298.0870056152344	808.6234741210938	-335.5920715332031	-361.7192687988281	1418.164672851562	140.7778472900391	-384.1058959960938	1366.27197265625	219.5440063476562	-385.5794372558594	1092.280151367188	317.7767639160156	-433.3986511230469	1065.781494140625	278.5860290527344	-261.8714599609375	892.5369873046875	299.2542419433594	-325.7752075195312	883.1327514648438	359.2566528320312	-375.8668823242188	1035.784423828125	334.7306518554688	-251.1499481201172	739.562744140625	335.7498168945312	-241.4030914306641	797.873046875	326.3631591796875	-304.3638000488281	799.9617309570312	371.4517517089844	-280.3415832519531	1647.695434570312	50.1280632019043	-221.0545959472656	1628.446899414062	-147.0196380615234	-167.5927124023438	1642.846557617188	-28.67609024047852	-367.692138671875	1635.027465820312	-105.0046997070312	-342.2418823242188	849.8046875	-227.9777679443359	-439.4668273925781	859.0086059570312	160.1033172607422	-328.0535583496094	901.5617065429688	116.6570739746094	-277.5854187011719	895.5497436523438	-129.5116577148438	-177.6830749511719	466.096923828125	-192.5166931152344	-191.7010040283203	624.2672119140625	-212.8861999511719	-484.69775390625	161.2276763916016	-155.4090270996094	-276.7371826171875	335.2538146972656	-195.0570678710938	-279.8985595703125	52.43427658081055	-115.6493911743164	-338.8669738769531	85.27997589111328	-77.20252990722656	-358.3485412597656	89.74168395996094	-186.7002410888672	-510.2362060546875	187.94970703125	-85.72432708740234	-378.82861328125	467.2003784179688	137.4317779541016	-386.3455200195312	726.996337890625	173.999267578125	-449.2427673339844	44.69303512573242	142.4621124267578	-377.9300537109375	320.8623657226562	145.0984954833984	-238.5048065185547	44.57837295532227	68.19731903076172	-307.2504577636719	51.85506820678711	43.45318222045898	-313.3726196289062	43.87335968017578	153.1047058105469	-520.3760986328125	39.73473739624023	106.4966049194336	
206	2.05	-526.362060546875	957.9995727539062	0.8143947720527649	-500.9331970214844	943.282470703125	-139.2216033935547	-498.4584350585938	1059.335327148438	-39.87771606445312	-205.8788909912109	1239.30810546875	-23.08987617492676	-496.7026062011719	1184.56201171875	-36.90892028808594	-413.6405334472656	1447.894165039062	-17.41827964782715	-235.2371368408203	1354.33203125	-29.99936294555664	-485.8297729492188	1333.447998046875	75.36919403076172	-451.7463684082031	1403.430053710938	-116.0284042358398	-346.4046936035156	1418.233642578125	-193.6079711914062	-371.5125427246094	1310.743896484375	-295.1702575683594	-375.2420959472656	1101.449951171875	-351.6741333007812	-452.849853515625	1089.542724609375	-284.6699829101562	-304.1750183105469	893.9239501953125	-329.1888427734375	-356.7149047851562	880.7080688476562	-380.6065673828125	-360.3698120117188	1013.659118652344	-369.6580200195312	-302.0140991210938	734.709716796875	-336.2893981933594	-352.4281005859375	801.1199340820312	-379.3642883300781	-292.3474426269531	808.563720703125	-339.7074890136719	-351.1370239257812	1419.008422851562	139.7735137939453	-372.3936462402344	1367.72607421875	219.2289886474609	-369.7214965820312	1094.3046875	319.7109985351562	-417.7012939453125	1066.940063476562	281.4281921386719	-242.6519317626953	896.7858276367188	299.9164428710938	-305.3810119628906	886.3270263671875	361.0036010742188	-358.6799011230469	1038.061401367188	336.747802734375	-228.5480804443359	744.0943603515625	336.5154113769531	-220.0013732910156	802.6400146484375	326.8559265136719	-282.2731323242188	803.5311889648438	372.9777221679688	-271.1474609375	1648.222900390625	46.51944732666016	-214.264892578125	1627.634033203125	-151.2137298583984	-159.4108581542969	1643.168212890625	-33.72488403320312	-360.3795471191406	1634.011962890625	-107.2654037475586	-331.2796325683594	850.1588745117188	-228.0362548828125	-431.0121765136719	859.2479248046875	159.7922821044922	-319.0135192871094	901.0841674804688	116.9054260253906	-267.6175231933594	895.8278198242188	-129.0571746826172	-159.6238250732422	469.2341918945312	-191.7837829589844	-176.7930297851562	627.7264404296875	-212.2295227050781	-448.4647827148438	147.1362152099609	-152.0279235839844	-251.376953125	333.11279296875	-193.5562744140625	-236.7319030761719	51.84946060180664	-114.2604293823242	-297.3965148925781	80.71070861816406	-75.35115814208984	-318.0193786621094	84.22377014160156	-184.6405334472656	-475.1799621582031	172.2034454345703	-81.95782470703125	-376.0592041015625	466.76171875	137.3218383789062	-379.3856811523438	726.76171875	173.7194061279297	-449.3583068847656	44.84777450561523	142.2116546630859	-376.4937133789062	320.5386047363281	144.9478149414062	-238.4685363769531	44.53694534301758	68.31662750244141	-307.1759338378906	51.81595993041992	43.45642852783203	-313.469970703125	43.90881729125977	153.0926666259766	-520.4295654296875	39.90092849731445	106.0318222045898	
207	2.06	-516.5464477539062	957.7037963867188	0.04096264764666557	-490.8370361328125	942.3548583984375	-139.8351287841797	-489.1773986816406	1058.651733398438	-39.68808746337891	-196.6398620605469	1239.199462890625	-24.50473785400391	-487.2756652832031	1183.939208984375	-36.36870193481445	-404.6092529296875	1447.423461914062	-17.93990707397461	-226.1886291503906	1354.184448242188	-31.88433074951172	-475.8411865234375	1333.34375	76.04264068603516	-443.6092224121094	1402.40673828125	-115.9469375610352	-339.1575927734375	1417.256713867188	-194.5601348876953	-365.4326477050781	1309.835815429688	-295.744873046875	-370.2214050292969	1100.849975585938	-352.5747680664062	-446.5876770019531	1088.682250976562	-284.2286071777344	-298.6030578613281	893.3564453125	-332.3792114257812	-352.5181274414062	880.2634887695312	-382.8525085449219	-355.6488342285156	1013.190673828125	-371.2535095214844	-296.3793640136719	734.1609497070312	-340.4391784667969	-348.2110595703125	800.6449584960938	-381.7399291992188	-286.9594116210938	808.0955810546875	-343.7242431640625	-340.53662109375	1419.656860351562	138.6263885498047	-360.6516723632812	1368.97607421875	218.7471313476562	-353.7471008300781	1096.224853515625	321.4560852050781	-401.8699951171875	1067.976318359375	284.1144104003906	-223.2599334716797	901.0613403320312	300.3268432617188	-284.8147583007812	889.4664306640625	362.4215698242188	-341.365966796875	1040.266357421875	338.5478515625	-205.7362670898438	748.6607666015625	336.7170104980469	-198.3943176269531	807.4498901367188	326.9382629394531	-260.0167846679688	807.031005859375	373.9956665039062	-262.0938415527344	1648.504516601562	42.7882080078125	-207.5180053710938	1626.60693359375	-155.4553833007812	-151.3047790527344	1643.263549804688	-38.81127166748047	-353.0998840332031	1632.7568359375	-109.6485748291016	-320.4864807128906	850.2205810546875	-228.1662445068359	-422.4228820800781	859.3787841796875	159.4630126953125	-309.8462524414062	900.4619750976562	117.0597763061523	-257.5675659179688	895.7968139648438	-128.7627410888672	-142.5750885009766	471.8565673828125	-191.2428741455078	-162.7742462158203	630.5284423828125	-211.6956481933594	-411.2000122070312	132.9559173583984	-149.2096405029297	-226.2980346679688	330.7366638183594	-192.4118957519531	-193.3742218017578	51.79021835327148	-113.3727264404297	-255.5292663574219	76.47415161132812	-74.00105285644531	-277.1823425292969	78.98017120361328	-183.1116638183594	-439.0141296386719	156.267578125	-78.74472808837891	-373.2649536132812	466.2972106933594	137.1656799316406	-372.3546752929688	726.4315185546875	173.4033050537109	-449.4874267578125	44.98296356201172	141.9811859130859	-375.0557250976562	320.1927795410156	144.7819366455078	-238.4664459228516	44.50665664672852	68.42566680908203	-307.1257019042969	51.78036880493164	43.46554946899414	-313.5814208984375	43.94519805908203	153.0852661132812	-520.5081176757812	40.03730010986328	105.584114074707	
